<svg width="286" height="134" viewBox="0 0 286 134" fill="none" xmlns="http://www.w3.org/2000/svg">
    <defs>
        <linearGradient id="paint0_linear_354_65" x1="-3.5" y1="75" x2="295.5" y2="81"
            gradientUnits="userSpaceOnUse">
            <stop stop-color="#9452C7" />
            <stop offset="1" stop-color="#54178C" />
        </linearGradient>
    </defs>
    <path
        d="M24.412 84.48V83.48H22.982L23.4727 84.8232L24.412 84.48ZM62.752 84.48V85.48H63.5634L63.7306 84.686L62.752 84.48ZM60.7 95.388L61.5113 95.9726L62.1592 95.0735L61.1985 94.5211L60.7 95.388ZM47.74 87.936L48.2385 87.0691L47.5411 86.6681L47.0001 87.2633L47.74 87.936ZM24.088 72.384L23.1237 72.1193L22.7765 73.384H24.088V72.384ZM47.308 72.384V73.384H48.6212L48.272 72.1181L47.308 72.384ZM24.412 85.48H62.752V83.48H24.412V85.48ZM63.7306 84.686C64.1779 82.561 64.4 80.3316 64.4 78H62.4C62.4 80.2043 62.1901 82.295 61.7735 84.274L63.7306 84.686ZM64.4 78C64.4 61.1784 52.3262 48.488 35.968 48.488V50.488C51.1458 50.488 62.4 62.2056 62.4 78H64.4ZM35.968 48.488C18.3392 48.488 6.24 61.3683 6.24 78H8.24C8.24 62.4477 19.4688 50.488 35.968 50.488V48.488ZM6.24 78C6.24 86.2878 9.19159 93.6799 14.5691 99.0013C19.9487 104.325 27.691 107.512 37.156 107.512V105.512C28.153 105.512 20.9373 102.489 15.9759 97.5797C11.0124 92.6681 8.24 85.8042 8.24 78H6.24ZM37.156 107.512C47.6885 107.512 56.0045 103.615 61.5113 95.9726L59.8887 94.8034C54.8115 101.849 47.1435 105.512 37.156 105.512V107.512ZM61.1985 94.5211L48.2385 87.0691L47.2415 88.8029L60.2015 96.2549L61.1985 94.5211ZM47.0001 87.2633C45.0539 89.4041 41.5565 91.04 37.372 91.04V93.04C42.0435 93.04 46.1061 91.2199 48.4799 88.6087L47.0001 87.2633ZM37.372 91.04C34.4997 91.04 31.9505 90.5682 29.9024 89.4825C27.8797 88.4102 26.2924 86.7127 25.3513 84.1368L23.4727 84.8232C24.5836 87.8633 26.5063 89.9458 28.9656 91.2495C31.3995 92.5398 34.3043 93.04 37.372 93.04V91.04ZM25.0523 72.6487C25.7578 70.0788 27.0468 68.1524 28.821 66.861C30.5997 65.5663 32.946 64.852 35.86 64.852V62.852C32.618 62.852 29.8343 63.6497 27.644 65.244C25.4492 66.8416 23.9302 69.1812 23.1237 72.1193L25.0523 72.6487ZM35.86 64.852C38.1409 64.852 40.367 65.3846 42.2064 66.6027C44.0304 67.8107 45.5399 69.7351 46.344 72.6499L48.272 72.1181C47.3481 68.7689 45.5636 66.4273 43.3106 64.9353C41.073 63.4534 38.4391 62.852 35.86 62.852V64.852ZM47.308 71.384H24.088V73.384H47.308V71.384ZM120.619 105V106H122.547L121.436 104.424L120.619 105ZM101.287 77.568L100.469 76.9928L100.064 77.5686L100.469 78.1441L101.287 77.568ZM119.971 51L120.789 51.5752L121.897 50H119.971V51ZM101.395 51V50H100.875L100.576 50.4257L101.395 51ZM91.9989 64.392L91.1803 64.9663L91.9989 66.1331L92.8175 64.9663L91.9989 64.392ZM82.6029 51L83.4215 50.4257L83.1229 50H82.6029V51ZM64.0269 51V50H62.1011L63.2089 51.5752L64.0269 51ZM82.7109 77.568L83.5283 78.1441L83.9339 77.5686L83.5289 76.9928L82.7109 77.568ZM63.3789 105L62.5615 104.424L61.4508 106H63.3789V105ZM81.9549 105V106H82.4736L82.7724 105.576L81.9549 105ZM91.9989 90.744L92.8164 90.168L91.9989 89.0078L91.1814 90.168L91.9989 90.744ZM102.043 105L101.225 105.576L101.524 106H102.043V105ZM121.436 104.424L102.104 76.992L100.469 78.1441L119.801 105.576L121.436 104.424ZM102.105 78.1432L120.789 51.5752L119.153 50.4248L100.469 76.9928L102.105 78.1432ZM119.971 50H101.395V52H119.971V50ZM100.576 50.4257L91.1803 63.8176L92.8175 64.9663L102.214 51.5743L100.576 50.4257ZM92.8175 63.8176L83.4215 50.4257L81.7843 51.5743L91.1803 64.9663L92.8175 63.8176ZM82.6029 50H64.0269V52H82.6029V50ZM63.2089 51.5752L81.8929 78.1432L83.5289 76.9928L64.8449 50.4248L63.2089 51.5752ZM81.8935 76.992L62.5615 104.424L64.1963 105.576L83.5283 78.1441L81.8935 76.992ZM63.3789 106H81.9549V104H63.3789V106ZM82.7724 105.576L92.8164 91.32L91.1814 90.168L81.1374 104.424L82.7724 105.576ZM91.1814 91.32L101.225 105.576L102.86 104.424L92.8164 90.168L91.1814 91.32ZM102.043 106H120.619V104H102.043V106ZM126.588 105H125.588V106H126.588V105ZM142.788 105V106H143.788V105H142.788ZM142.788 51H143.788V50H142.788V51ZM126.588 51V50H125.588V51H126.588ZM134.688 47.248C140.533 47.248 145.408 42.3723 145.408 36.528H143.408C143.408 41.2677 139.428 45.248 134.688 45.248V47.248ZM145.408 36.528C145.408 30.6837 140.533 25.808 134.688 25.808V27.808C139.428 27.808 143.408 31.7883 143.408 36.528H145.408ZM134.688 25.808C128.844 25.808 123.968 30.6837 123.968 36.528H125.968C125.968 31.7883 129.949 27.808 134.688 27.808V25.808ZM123.968 36.528C123.968 42.3723 128.844 47.248 134.688 47.248V45.248C129.949 45.248 125.968 41.2677 125.968 36.528H123.968ZM126.588 106H142.788V104H126.588V106ZM143.788 105V51H141.788V105H143.788ZM142.788 50H126.588V52H142.788V50ZM125.588 51V105H127.588V51H125.588ZM170.843 56.076H169.843V58.7526L171.598 56.7317L170.843 56.076ZM170.843 29.4H171.843V28.4H170.843V29.4ZM154.643 29.4V28.4H153.643V29.4H154.643ZM154.643 105H153.643V106H154.643V105ZM170.843 105V106H171.843V105H170.843ZM170.843 99.924L171.598 99.2683L169.843 97.2474V99.924H170.843ZM186.935 48.488C179.45 48.488 173.867 51.069 170.088 55.4203L171.598 56.7317C174.947 52.875 179.949 50.488 186.935 50.488V48.488ZM171.843 56.076V29.4H169.843V56.076H171.843ZM170.843 28.4H154.643V30.4H170.843V28.4ZM153.643 29.4V105H155.643V29.4H153.643ZM154.643 106H170.843V104H154.643V106ZM171.843 105V99.924H169.843V105H171.843ZM170.088 100.58C173.867 104.931 179.45 107.512 186.935 107.512V105.512C179.949 105.512 174.947 103.125 171.598 99.2683L170.088 100.58ZM186.935 107.512C201.717 107.512 213.747 94.5594 213.747 78H211.747C211.747 93.6246 200.45 105.512 186.935 105.512V107.512ZM213.747 78C213.747 61.4406 201.717 48.488 186.935 48.488V50.488C200.45 50.488 211.747 62.3754 211.747 78H213.747ZM183.695 90.176C180.2 90.176 177.253 88.9896 175.182 86.9184C173.112 84.8489 171.843 81.8215 171.843 78H169.843C169.843 82.2785 171.274 85.8391 173.768 88.3326C176.259 90.8244 179.738 92.176 183.695 92.176V90.176ZM171.843 78C171.843 74.1785 173.112 71.1511 175.182 69.0816C177.253 67.0104 180.2 65.824 183.695 65.824V63.824C179.738 63.824 176.259 65.1756 173.768 67.6674C171.274 70.1609 169.843 73.7215 169.843 78H171.843ZM183.695 65.824C187.19 65.824 190.137 67.0104 192.209 69.0816C194.278 71.1511 195.547 74.1785 195.547 78H197.547C197.547 73.7215 196.116 70.1609 193.623 67.6674C191.131 65.1756 187.652 63.824 183.695 63.824V65.824ZM195.547 78C195.547 81.8215 194.278 84.8489 192.209 86.9184C190.137 88.9896 187.19 90.176 183.695 90.176V92.176C187.652 92.176 191.131 90.8244 193.623 88.3326C196.116 85.8391 197.547 82.2785 197.547 78H195.547ZM221.932 105H220.932V106H221.932V105ZM238.132 105V106H239.132V105H238.132ZM238.132 51H239.132V50H238.132V51ZM221.932 51V50H220.932V51H221.932ZM230.032 47.248C235.876 47.248 240.752 42.3723 240.752 36.528H238.752C238.752 41.2677 234.772 45.248 230.032 45.248V47.248ZM240.752 36.528C240.752 30.6837 235.876 25.808 230.032 25.808V27.808C234.772 27.808 238.752 31.7883 238.752 36.528H240.752ZM230.032 25.808C224.188 25.808 219.312 30.6837 219.312 36.528H221.312C221.312 31.7883 225.292 27.808 230.032 27.808V25.808ZM219.312 36.528C219.312 42.3723 224.188 47.248 230.032 47.248V45.248C225.292 45.248 221.312 41.2677 221.312 36.528H219.312ZM221.932 106H238.132V104H221.932V106ZM239.132 105V51H237.132V105H239.132ZM238.132 50H221.932V52H238.132V50ZM220.932 51V105H222.932V51H220.932ZM281.631 66.552V67.552H282.631V66.552H281.631ZM281.631 51H282.631V50H281.631V51ZM270.507 51H269.507V52H270.507V51ZM270.507 35.88H271.507V34.536L270.22 34.9222L270.507 35.88ZM254.307 40.74L254.02 39.7822L253.307 39.996V40.74H254.307ZM254.307 51V52H255.307V51H254.307ZM245.667 51V50H244.667V51H245.667ZM245.667 66.552H244.667V67.552H245.667V66.552ZM254.307 66.552H255.307V65.552H254.307V66.552ZM281.631 105L281.732 105.995L282.631 105.903V105H281.631ZM281.631 90.312H282.631V89.2496L281.57 89.3138L281.631 90.312ZM270.507 66.552V65.552H269.507V66.552H270.507ZM282.631 66.552V51H280.631V66.552H282.631ZM281.631 50H270.507V52H281.631V50ZM271.507 51V35.88H269.507V51H271.507ZM270.22 34.9222L254.02 39.7822L254.594 41.6978L270.794 36.8378L270.22 34.9222ZM253.307 40.74V51H255.307V40.74H253.307ZM254.307 50H245.667V52H254.307V50ZM244.667 51V66.552H246.667V51H244.667ZM245.667 67.552H254.307V65.552H245.667V67.552ZM253.307 66.552V85.668H255.307V66.552H253.307ZM253.307 85.668C253.307 93.316 254.856 99.1014 259.422 102.607C263.932 106.069 271.107 107.079 281.732 105.995L281.529 104.005C270.987 105.081 264.5 103.985 260.64 101.021C256.836 98.1006 255.307 93.14 255.307 85.668H253.307ZM282.631 105V90.312H280.631V105H282.631ZM281.57 89.3138C277.977 89.5316 275.391 89.5084 273.714 88.9455C272.911 88.6757 272.39 88.3045 272.059 87.8359C271.725 87.3645 271.507 86.6875 271.507 85.668H269.507C269.507 86.9705 269.788 88.089 270.426 88.9912C271.067 89.8963 271.991 90.4768 273.078 90.8415C275.181 91.5476 278.156 91.5244 281.691 91.3102L281.57 89.3138ZM271.507 85.668V66.552H269.507V85.668H271.507ZM270.507 67.552H281.631V65.552H270.507V67.552Z"
        fill="url(#paint0_linear_354_65)" />
    <path
        d="M20.412 82.48H58.752C59.184 80.428 59.4 78.268 59.4 76C59.4 59.692 47.736 47.488 31.968 47.488C14.904 47.488 3.24 59.908 3.24 76C3.24 92.092 14.688 104.512 33.156 104.512C43.416 104.512 51.408 100.732 56.7 93.388L43.74 85.936C41.58 88.312 37.8 90.04 33.372 90.04C27.432 90.04 22.464 88.096 20.412 82.48ZM20.088 70.384C21.6 64.876 25.704 61.852 31.86 61.852C36.72 61.852 41.58 64.12 43.308 70.384H20.088ZM116.619 103L97.2869 75.568L115.971 49H97.3949L87.9989 62.392L78.6029 49H60.0269L78.7109 75.568L59.3789 103H77.9549L87.9989 88.744L98.0429 103H116.619ZM130.688 44.248C135.98 44.248 140.408 39.82 140.408 34.528C140.408 29.236 135.98 24.808 130.688 24.808C125.396 24.808 120.968 29.236 120.968 34.528C120.968 39.82 125.396 44.248 130.688 44.248ZM122.588 103H138.788V49H122.588V103ZM182.935 47.488C175.699 47.488 170.407 49.972 166.843 54.076V27.4H150.643V103H166.843V97.924C170.407 102.028 175.699 104.512 182.935 104.512C197.083 104.512 208.747 92.092 208.747 76C208.747 59.908 197.083 47.488 182.935 47.488ZM179.695 89.176C172.243 89.176 166.843 84.1 166.843 76C166.843 67.9 172.243 62.824 179.695 62.824C187.147 62.824 192.547 67.9 192.547 76C192.547 84.1 187.147 89.176 179.695 89.176ZM226.032 44.248C231.324 44.248 235.752 39.82 235.752 34.528C235.752 29.236 231.324 24.808 226.032 24.808C220.74 24.808 216.312 29.236 216.312 34.528C216.312 39.82 220.74 44.248 226.032 44.248ZM217.932 103H234.132V49H217.932V103ZM277.631 64.552V49H266.507V33.88L250.307 38.74V49H241.667V64.552H250.307V83.668C250.307 98.788 256.463 105.16 277.631 103V88.312C270.503 88.744 266.507 88.312 266.507 83.668V64.552H277.631Z"
        fill="#EEEEEE" />
    <path
        d="M116.24 103L96.908 75.568L115.592 49H97.016L87.62 62.392L78.224 49H59.648L78.332 75.568L59 103H77.576L87.62 88.744L97.664 103H116.24Z"
        fill="#9553D7" />
</svg>
